<?xml version="1.0" encoding="utf-8"?>
<!-- Generator: Adobe Illustrator 22.1.0, SVG Export Plug-In . SVG Version: 6.00 Build 0)  -->
<svg version="1.1" id="Layer_1" xmlns="http://www.w3.org/2000/svg" xmlns:xlink="http://www.w3.org/1999/xlink" x="0px" y="0px"
	 viewBox="0 0 280.3 76" style="enable-background:new 0 0 280.3 76;" xml:space="preserve">
<style type="text/css">
	.st0{fill:#ED1C24;}
	.st1{fill:#FEFCFC;}
	.st2{fill:#FEFBFB;}
	.st3{fill:#FEFDFD;}
	.st4{fill:#FCE4E5;}
	.st5{fill:#ED242C;}
</style>
<path class="st0" d="M249.6,73.8H58.3c-5.6,0-10-5-9.2-10.6l7.2-52.5c0.6-4.6,4.6-8,9.2-8h190.9c5.6,0,9.9,4.9,9.2,10.5l-6.8,52.5
	C258.3,70.3,254.3,73.8,249.6,73.8z"/>
<path class="st1" d="M193.6,7.1c2.4,0,4.9,0,7.3,0c6.4,0,11.5,4.6,12.2,11c0.4,3.2-0.4,6.2-0.8,9.2c-0.4,3.7-1.9,7-4.4,9.7
	c-0.4,0.4-0.3,0.8,0,1.2c1,1.6,1.5,3.3,1.7,5.1c0.1,0.5,0,0.7-0.6,0.7c-3.3,0-6.6,0-9.9,0c-0.4,0-0.6-0.1-0.9-0.4
	c-0.6-0.7-1.4-0.9-2.2-0.9c-4.7,0-9.5,0-14.2,0c-0.8,0-1.6,0.2-2.2,0.7c-0.7,0.7-1.4,0.7-2.3,0.7c-3,0-6,0-9,0
	c-0.8,0-0.9-0.2-0.6-0.9c0.8-2,2-3.8,3.5-5.4c0.3-0.3,0.5-0.5,0.2-1c-1.9-3.2-2.3-6.6-1.7-10.2c0.4-2.1,0.4-4.3,1.1-6.4
	c2.1-7,6.6-11.6,13.9-12.9C187.5,6.7,190.6,7.2,193.6,7.1z M190.2,32C190.2,32.1,190.2,32.1,190.2,32c1.1,0.1,2.2,0.1,3.3,0.1
	s2.2,0,3.3,0c2.6,0,4.4-1.4,4.9-4.1c0.4-2.3,0.7-4.5,1-6.8c0.3-2.2-1-3.6-3.3-3.6c-4.6,0-9.1,0-13.7,0c-2.2,0-4.2,1.5-4.6,3.7
	c-0.5,2.4-0.8,4.8-1.1,7.2c-0.2,2.3,1,3.6,3.3,3.6C185.6,32.1,187.9,32,190.2,32z"/>
<path class="st2" d="M87.3,26.3c-2.2,2.4-3.1,5.3-3.9,8.1c-0.7,2.2-1.9,3.2-4.1,3.2c-1.5,0-3.1,0-4.6,0c-0.5,0-0.7,0.1-0.8,0.7
	c-0.2,1.7-0.5,3.4-0.7,5.1c-0.1,0.6-0.2,0.8-0.8,0.8c-3.2,0-6.4,0-9.6,0c-0.6,0-0.7-0.2-0.6-0.7c1.2-7.7,2.3-15.5,3.5-23.2
	c1-6.4,6.3-11.8,12.6-12.9c0.6-0.1,1.2-0.2,1.8-0.2c16.1,0,32.2,0,48.3,0c0.9,0,1.1,0.2,1,1.1c-0.3,2.4-0.5,4.8-0.7,7.2
	c-0.1,0.7-0.2,1.4-0.5,2c-0.3,0.8-0.8,1.1-1.7,1.1c-15.8,0-31.6,0-47.4,0c-1.5,0-2.3,0.7-2.5,2.2c-0.2,1.7-0.4,3.3-0.7,5
	c-0.1,0.7,0.1,0.8,0.7,0.8c3.3,0,6.6,0,9.9,0C86.6,26.3,86.9,26.3,87.3,26.3z"/>
<path class="st3" d="M143.8,44.1c4.8-8.8,9.6-17.5,14.4-26.2c-0.4-0.2-0.7-0.1-1-0.1c-6,0-11.9,0-17.9,0c-0.9,0-1.7,0-2.6-0.1
	c-2.1-0.1-3.7-1.9-3.7-4.1c0-2,0.3-4,0.5-5.9c0.1-0.7,0.6-0.6,1-0.6c4.4,0,8.7,0,13.1,0c6.7,0,13.3,0,20,0c2.6,0,4.4,1.5,4.6,3.8
	c0.1,1.3-0.1,2.5-0.7,3.7c-4.3,7.8-8.5,15.6-12.7,23.4c-1,1.8-2,3.7-3,5.5c-0.2,0.5-0.5,0.6-1,0.6C151.1,44.1,147.6,44.1,143.8,44.1
	z"/>
<path class="st1" d="M126.1,44.1c-1.4,0-2.9,0-4.3,0c-0.7,0-1.1-0.1-0.9-1c0.2-1,0.3-2.1,0.5-3.1c0.2-1.5-0.4-2.2-1.9-2.2
	c-1.3,0-2.7,0-4,0c-0.7,0-1,0.1-1,0.9c-0.1,1.5-0.4,3-0.6,4.6c-0.1,0.6-0.3,0.8-0.9,0.8c-3,0-5.9,0-8.9,0c-0.6,0-0.8-0.1-0.7-0.8
	c0.3-1.5,0.4-3,0.7-4.5c0.1-0.7,0-1-0.8-1c-1.8,0-3.7,0-5.5-0.1c-0.5,0-0.7,0.1-0.8,0.7c-0.2,1.6-0.4,3.1-0.6,4.7
	c-0.1,0.7-0.3,1.1-1.1,1c-2.9-0.1-5.7,0-8.6,0c-0.8,0-0.9-0.2-0.8-0.9c0.5-3.1,0.9-6.3,1.3-9.4c0.6-3.8,4-7.3,8.3-7.2
	c7.7,0.2,15.3,0.1,23,0.1c1.7,0,3.5-0.1,5.2,0.3c4.7,1,8,5.1,8.3,10.1c0.1,2.2-0.3,4.3-0.5,6.4c-0.1,0.6-0.4,0.7-0.9,0.7
	C129,44,127.6,44.1,126.1,44.1z"/>
<path class="st2" d="M185.3,69.3c-2.8,0-5.7,0.2-8.5,0c-6.3-0.4-11.1-5.5-11.4-11.8c-0.1-2.5,0.4-4.9,0.7-7.4
	c0.1-0.6,0.4-0.6,0.9-0.6c3.1,0,6.1,0,9.2,0c0.6,0,0.8,0.2,0.7,0.8c-0.3,1.5-0.5,3.1-0.7,4.6c-0.4,2.5,0.8,3.9,3.3,3.9
	c4.5,0,9,0,13.5,0.1c2.8,0,4.6-1.6,4.9-4.4c0.2-1.4,0.4-2.9,0.6-4.3c0.1-0.5,0.3-0.7,0.8-0.7c3.1,0,6.3,0,9.4,0
	c0.3,0,0.7-0.1,0.6,0.5c-0.5,3.1-0.6,6.4-2.1,9.3c-3.3,6.4-8.3,10.1-15.7,10.2c-2.1,0-4.1,0-6.2,0C185.3,69.4,185.3,69.4,185.3,69.3
	z"/>
<path class="st1" d="M230.2,69.5c-2.2-0.1-4.9,0.2-7.6-0.2c-6.4-0.8-10.8-5.7-10.9-12.2c0-2.4,0.6-4.8,0.8-7.2
	c0-0.4,0.3-0.5,0.6-0.5c3.2,0,6.3,0,9.5,0c0.6,0,0.6,0.3,0.6,0.7c-0.2,1.6-0.5,3.2-0.7,4.9c-0.3,2.6,0.9,3.8,3.4,3.8
	c3.9,0,7.7,0.1,11.6,0.1c2.3,0,4.3-1.6,4.7-3.9c0.3-1.6,0.5-3.2,0.7-4.9c0.1-0.6,0.3-0.7,0.8-0.7c3,0,6,0,9,0c0.4,0,0.8-0.1,0.7,0.6
	c-0.5,2.6-0.6,5.3-1.4,7.9c-2,7-8.3,11.6-15.5,11.6C234.6,69.5,232.7,69.5,230.2,69.5z"/>
<path class="st2" d="M129.8,69.3c2.7-4.8,5.3-9.5,7.9-14.2c0.9-1.7,1.9-3.3,2.8-5c0.2-0.3,0.3-0.7,0.8-0.7c3.6,0,7.2,0,10.9,0
	c0.1,0.5-0.2,0.7-0.4,1c-2.9,5.3-5.9,10.6-8.8,15.9c-1.1,2-2.8,3.1-5.2,3.1C135.2,69.4,132.6,69.4,129.8,69.3z"/>
<path class="st2" d="M66.8,49.4c1.5,0,3,0,4.5,0c0.7,0,1,0.1,0.8,0.9c-0.8,5-1.5,10-2.2,15c-0.4,2.4-1.8,3.7-4.3,3.7
	c-2.1,0-4.2,0-6.3,0c-0.8,0-1-0.2-0.9-1c0.8-5.4,1.6-10.7,2.4-16.1c0.1-0.8,0-1.8,0.5-2.3c0.6-0.5,1.7-0.1,2.5-0.2
	C64.8,49.4,65.8,49.4,66.8,49.4z"/>
<path class="st2" d="M125.3,49.5c1.4,0,2.9,0,4.3,0c0.8,0,1,0.2,0.9,1c-0.6,4.1-1.2,8.1-1.7,12.2c-0.3,1.9-0.5,3.8-0.8,5.7
	c-0.1,0.7-0.3,1-1.1,1c-2.1-0.1-4.2,0-6.3-0.1c-1.8,0-3.1-1.3-2.8-3.1c0.7-5.4,1.5-10.7,2.2-16.1c0.1-0.5,0.4-0.6,0.8-0.6
	C122.3,49.5,123.8,49.5,125.3,49.5z"/>
<path class="st2" d="M106.2,69.2c-1.1,0-2.2,0-3.2,0c-1.9-0.1-2.9-1.3-2.7-3.3c0.4-3.5,1-6.9,1.4-10.3c0.2-1.7,0.5-3.4,0.7-5.2
	c0.1-0.7,0.3-0.9,1-0.9c2.9,0,5.7,0,8.6,0c0.8,0,1,0.2,0.9,1c-0.8,5.2-1.5,10.3-2.2,15.5c-0.1,0.8-0.3,1.5-0.3,2.3s-0.4,1-1.2,1
	C108.2,69.2,107.2,69.2,106.2,69.2L106.2,69.2z"/>
<path class="st2" d="M86.3,69.1c-1.1,0-2.2,0-3.3,0c-0.6,0-0.8-0.1-0.7-0.8c0.8-5.3,1.5-10.6,2.2-15.9c0-0.1,0-0.2,0.1-0.3
	c0.1-0.8,0-1.9,0.5-2.4c0.5-0.6,1.7-0.2,2.5-0.2c2.3,0,4.6,0,6.9,0c0.6,0,1,0.1,0.8,0.9c-0.8,5.2-1.4,10.3-2.2,15.5
	c-0.3,2.2-1.7,3.3-3.9,3.3C88.2,69.1,87.3,69.1,86.3,69.1z"/>
<path class="st4" d="M67.1,45.9c1.5,0,3.1,0,4.6,0c0.4,0,1-0.3,1,0.5c0,0.7,0,1.3-1.1,1.2c-3.1-0.1-6.2,0-9.3,0
	c-0.4,0-0.9,0.2-0.8-0.6c0.1-0.5-0.1-1.2,0.9-1.2C64,45.9,65.6,45.9,67.1,45.9z"/>
<path class="st1" d="M154.1,46c-0.3,1-0.7,1.6-1.9,1.6c-3.4-0.1-6.8,0-10.2,0c0.3-1.2,0.8-1.6,2-1.6C147.4,46.1,150.7,46,154.1,46z"
	/>
<path class="st1" d="M172.2,46c1.5,0,3.1,0,4.6,0c0.2,0,0.8-0.2,0.6,0.3c-0.1,0.4,0.3,1.2-0.6,1.2c-0.7,0-1.3,0-2,0
	c-2.4,0-4.9,0-7.3,0c-0.3,0-0.9,0.4-0.9-0.4c0-0.6,0-1.2,1-1.1C169.1,46.1,170.7,46,172.2,46z"/>
<path class="st1" d="M204.4,47.5c-1.5,0-3,0-4.5,0c-0.3,0-0.9,0.4-0.9-0.4c0-0.6,0-1.2,1-1.1c2.3,0.1,4.7,0,7,0c0.6,0,1.2,0,1.8,0
	c0.4,0,1-0.4,1,0.5c0,0.8-0.3,1-1.1,1C207.2,47.5,205.8,47.5,204.4,47.5z"/>
<path class="st3" d="M218.6,46c1.5,0,2.9,0,4.4,0c0.3,0,0.9-0.3,0.8,0.4c-0.1,0.5,0.1,1.2-0.9,1.1c-2.3-0.1-4.5,0-6.8,0
	c-0.8,0-1.5,0-2.3,0c-0.3,0-0.9,0.3-0.8-0.5c0.1-0.6,0.1-1.1,0.9-1C215.4,46.1,217,46,218.6,46z"/>
<path class="st3" d="M241.5,17.8c-3.1,0-6.3,0-9.4,0c-2.3,0-4.3,1.5-4.7,3.7c-0.5,2.9-0.9,5.8-1.3,8.7c-0.1,0.8,0.3,0.8,0.8,0.8
	c5.1,0,10.1,0,15.2,0c5.8,0,10.3,3.3,11.7,8.5c0.3,1.2,0.4,2.4,0.5,3.6c0,0.6-0.1,0.9-0.9,0.9c-3,0-6,0-9,0c-0.4,0-0.7,0-0.9-0.5
	c-0.4-1.3-1.5-1.8-2.8-1.8c-5.3,0-10.5,0-15.8-0.1c-0.5,0-0.7,0.2-0.7,0.6c0,0.3-0.1,0.7-0.1,1c0,0.6-0.3,0.8-0.9,0.7
	c-3,0-6.1,0-9.1,0c-0.7,0-0.9-0.2-0.8-0.9c0.9-6.1,1.8-12.3,2.7-18.4c0.4-2.9,0.8-5.7,2.3-8.3c3-5.3,7.3-9,13.6-9.3
	c6.9-0.3,13.8,0,20.7,0c1,0,2.1,0,3.1,0c0.6,0,1,0.1,0.8,0.9c-0.3,1.9-0.5,3.8-0.9,5.7c-0.5,2.5-2.5,4.1-5,4.1
	C247.7,17.8,244.6,17.8,241.5,17.8L241.5,17.8z"/>
<path class="st1" d="M90.7,46c1.5,0,3,0,4.5,0c0.3,0,0.8-0.2,0.6,0.4c-0.1,0.4,0.3,1.2-0.6,1.2c-3.1,0-6.3,0-9.4,0
	c-0.4,0-0.6-0.1-0.5-0.5s-0.1-1,0.7-1C87.5,46,89.1,46,90.7,46z"/>
<path class="st1" d="M108,47.5c-1.5,0-2.9,0-4.4,0c-0.3,0-0.9,0.2-0.7-0.5c0.1-0.4-0.1-1.1,0.8-1c2.2,0.1,4.4,0,6.6,0
	c0.8,0,1.5,0,2.3,0c0.3,0,1-0.4,0.9,0.4c-0.1,0.6,0,1.2-0.9,1.1C111,47.5,109.5,47.5,108,47.5z"/>
<path class="st1" d="M248.9,46c1.5,0,2.9,0,4.4,0c0.3,0,0.8-0.1,0.7,0.5c-0.1,0.4,0.2,1.1-0.7,1.1c-3.1,0-6.3,0-9.4,0
	c-0.5,0-0.5-0.2-0.4-0.6c0.1-0.5,0-1,0.8-1C245.8,46,247.4,46,248.9,46z"/>
<path class="st3" d="M125.6,47.5c-1.5,0-3,0-4.5,0c-0.3,0-0.8,0.2-0.7-0.4c0.1-0.5-0.1-1.1,0.7-1.1c3.1,0,6.1,0,9.2,0
	c0.3,0,0.7-0.2,0.6,0.4c-0.1,0.4,0.2,1.1-0.7,1.1C128.7,47.5,127.2,47.5,125.6,47.5z"/>
<g>
	<path class="st5" d="M82.3,11.1c-0.3,0-0.5,0.1-0.5,0.4l-0.1,0.9h2l-0.1,0.8h-2l-0.3,2.3h-1.2l0.6-4.3c0.1-0.7,0.6-1.1,1.3-1.1
		c0.8,0,1.7,0,2.4,0.1l-0.1,0.9C84.3,11.1,82.3,11.1,82.3,11.1z"/>
	<path class="st5" d="M90.4,10.2c0.3,0,0.4,0.2,0.4,0.5l-0.4,4.8h-1.1l0.5-4.4h-0.1l-1.3,3.3c-0.1,0.3-0.2,0.4-0.5,0.4h-0.8
		c-0.3,0-0.4-0.1-0.4-0.4l-0.4-3.3h-0.1l-0.8,4.4h-1.1l0.9-4.9c0-0.3,0.2-0.4,0.5-0.4h1.1c0.3,0,0.4,0.1,0.4,0.4l0.3,2.6
		c0,0.3,0,0.5,0,0.8h0.1c0.1-0.3,0.2-0.5,0.2-0.7l1-2.7c0.1-0.3,0.2-0.4,0.5-0.4L90.4,10.2z"/>
	<path class="st5" d="M94.9,10.2c0.4,0,0.6,0.3,0.4,0.6l-2.2,4.7h-1.2l1.9-3.9c0.1-0.2,0.2-0.3,0.3-0.5h-2.4l0.1-1L94.9,10.2
		L94.9,10.2z"/>
	<path class="st5" d="M99.6,11.6c-0.1,0.6-0.3,1.1-1,1.2l0,0c0.7,0.1,0.8,0.7,0.7,1.5c-0.1,1-0.5,1.4-2.1,1.4c-1.5,0-2-0.5-1.9-1.5
		c0.1-0.7,0.4-1.3,1.1-1.4l0,0c-0.5-0.1-0.7-0.6-0.6-1.2c0.1-1,0.6-1.4,2-1.4C99.4,10.1,99.8,10.6,99.6,11.6z M96.6,14
		c-0.1,0.6,0.1,0.7,0.8,0.7c0.7,0,0.9-0.2,0.9-0.8c0.1-0.6,0-0.7-0.8-0.7C96.9,13.2,96.7,13.3,96.6,14z M97,11.7
		c-0.1,0.5,0,0.6,0.7,0.6c0.6,0,0.8-0.2,0.9-0.7s0-0.7-0.7-0.7C97.2,11,97.1,11.1,97,11.7z"/>
	<path class="st5" d="M104.1,13.7c-0.2,1.3-0.7,1.9-2.1,1.9c-1.5,0-1.9-0.7-1.6-2.7c0.3-2.4,1.1-2.8,2.5-2.8c0.4,0,0.7,0,1.3,0.1
		l-0.1,0.8c-0.4,0-0.6,0-1.2,0c-0.9,0-1.1,0.3-1.3,1.4c0.4-0.3,0.8-0.4,1.2-0.4C103.8,12,104.2,12.5,104.1,13.7z M102.4,12.9
		c-0.3,0-0.6,0.1-1,0.4c-0.2,1.2-0.1,1.4,0.6,1.4s0.8-0.3,1-1C103,13.1,103,12.9,102.4,12.9z"/>
	<path class="st5" d="M105.3,14.4c0.3,0,0.4,0.1,0.4,0.4l-0.1,0.4c0,0.3-0.2,0.4-0.4,0.4h-0.3c-0.3,0-0.4-0.1-0.4-0.4l0.1-0.4
		c0-0.3,0.2-0.4,0.4-0.4H105.3z"/>
	<path class="st5" d="M110.8,10.3l-0.2,0.9c-0.5,0-0.8,0-1.5,0c-0.8,0-1.1,0.3-1.3,1.8c-0.2,1.3,0,1.7,0.7,1.7s1.1,0,1.6-0.1v0.9
		c-0.5,0.2-1,0.2-1.7,0.2c-1.6,0-2.2-0.8-1.9-2.8c0.3-2.1,0.9-2.7,2.6-2.7C109.9,10.1,110.3,10.2,110.8,10.3z"/>
	<path class="st5" d="M115.6,12.9c-0.3,2.1-1,2.7-2.6,2.7s-2.2-0.7-2-2.8c0.3-2.1,0.9-2.7,2.6-2.7C115.2,10.1,115.8,10.8,115.6,12.9
		z M112.3,12.9c-0.2,1.4,0,1.8,0.8,1.8s1.1-0.4,1.3-1.9c0.2-1.4,0-1.8-0.8-1.8C112.8,11.1,112.5,11.4,112.3,12.9z"/>
	<path class="st5" d="M122.2,10.2c0.3,0,0.4,0.2,0.4,0.5l-0.5,4.8H121l0.5-4.4h-0.1l-1.3,3.3c-0.1,0.3-0.2,0.4-0.5,0.4h-0.8
		c-0.3,0-0.4-0.1-0.4-0.4l-0.4-3.3h-0.1l-0.8,4.4H116l0.9-4.9c0-0.3,0.2-0.4,0.5-0.4h1.1c0.3,0,0.4,0.1,0.4,0.4l0.3,2.6
		c0,0.3,0,0.5,0,0.8h0.1c0.1-0.3,0.2-0.5,0.2-0.7l1-2.7c0.1-0.3,0.2-0.4,0.5-0.4L122.2,10.2z"/>
</g>
</svg>
